<svg height="512" viewBox="0 0 56 60" width="512" xmlns="http://www.w3.org/2000/svg"><g id="Page-1" fill="none" fill-rule="evenodd"><g id="067---Locked-Folder" fill-rule="nonzero"><g id="Icons" transform="translate(1 1)"><path id="Shape" d="m43 35.059v10.941c0 1.6568542-1.3431458 3-3 3h-22v-4.42c.0009983-.378673.1084169-.7494404.31-1.07l2.38-3.8c.2027496-.3163382.3103507-.6842646.31-1.06v-24.1c-.0006596-1.0957792-.5987072-2.1040261-1.56-2.63l-19.44-11.92h36c1.6568542 0 3 1.34314575 3 3v22.94c-.0009672.6951815.1818775 1.3782617.53 1.98l2.94 5.16c.3479522.6014448.5307909 1.2841576.53 1.979z" fill="#3f51b5"/><path id="Shape" d="m42.47 33.079-2.94-5.16c-.3481225-.6017383-.5309672-1.2848185-.53-1.98v-22.939c0-1.65685425-1.3431458-3-3-3h-3c1.6568542 0 3 1.34314575 3 3v22.94c-.0009672.6951815.1818775 1.3782617.53 1.98l2.94 5.16c.3481225.6017383.5309672 1.2848185.53 1.98v10.94c0 1.6568542-1.3431458 3-3 3h3c1.6568542 0 3-1.3431458 3-3v-10.941c.0009672-.6951815-.1818775-1.3782617-.53-1.98z" fill="#283593"/><path id="Shape" d="m21 14.549v24.1c.0003507.3757354-.1072504.7436618-.31 1.06l-2.38 3.8c-.2015831.3205596-.3090017.691327-.31 1.07v11.421c-.0003672.6920863-.3585153 1.3347954-.9468854 1.6992185-.5883702.364423-1.3233301.3987601-1.9431146.0907815l-15.11-8.79v-49l19.44 11.92c.9609788.5258017 1.5589753 1.5335793 1.56 2.629z" fill="#02a9f4"/><path id="Shape" d="m19.44 11.919-19.44-11.919v1.84l16.44 10.08c.9609788.5258017 1.5589753 1.5335793 1.56 2.629v24.1c.0003507.3757354-.1072504.7436618-.31 1.06l-2.38 3.8c-.2015831.3205596-.3090017.691327-.31 1.07v11.421c.0025454.5220015-.2020879 1.0236948-.569 1.395l.679.4c.6205814.3083761 1.3565708.2735309 1.9452417-.0920969.588671-.3656277.9461237-1.0099274.9447583-1.7029031v-11.421c.0009983-.378673.1084169-.7494404.31-1.07l2.38-3.8c.2027496-.3163382.3103507-.6842646.31-1.06v-24.1c-.0006596-1.0957792-.5987072-2.1040261-1.56-2.63z" fill="#0377bc"/><path id="Shape" d="m4 11c-.55228475 0-1-.4477153-1-1v-2c0-.55228475.44771525-1 1-1s1 .44771525 1 1v2c0 .5522847-.44771525 1-1 1z" fill="#f5f5f5"/><path id="Shape" d="m4 34c-.55228475 0-1-.4477153-1-1v-18c0-.5522847.44771525-1 1-1s1 .4477153 1 1v18c0 .5522847-.44771525 1-1 1z" fill="#f5f5f5"/><path id="Shape" d="m28 34h24c1.1045695 0 2 .8954305 2 2v17c0 2.7614237-2.2385763 5-5 5h-18c-2.7614237 0-5-2.2385763-5-5v-17c0-1.1045695.8954305-2 2-2z" fill="#ff9801"/><path id="Shape" d="m52 34h-3c1.1045695 0 2 .8954305 2 2v17c0 2.7614237-2.2385763 5-5 5h3c2.7614237 0 5-2.2385763 5-5v-17c0-1.1045695-.8954305-2-2-2z" fill="#f57c00"/><path id="Shape" d="m29 33v-4c0-6.0751322 4.9248678-11 11-11s11 4.9248678 11 11v4m-4 0v-4c0-3.8659932-3.1340068-7-7-7s-7 3.1340068-7 7v4" fill="#f5f5f5"/><path id="Shape" d="m40 18c-.5020494.003799-1.0032389.0422235-1.5.115 5.437794.7520117 9.4904144 5.3954615 9.5 10.885v4h3v-4c-.0071635-6.0721626-4.9278374-10.9928365-11-11z" fill="#cfd8dc"/><path id="Shape" d="m43 43c.0032158-1.3740425-.9274623-2.5746319-2.2589269-2.9140511-1.3314645-.3394192-2.7233249.2691049-3.3783008 1.4769996s-.405622 2.7063604.6052277 3.6370515l-.58 3.476c-.0950865.5792001.0690551 1.1709318.4489262 1.6183826.379871.4474508.9371205.7054467 1.5240738.7056174h1.278c.5879836.0000723 1.1462101-.2585952 1.5262725-.7072345.3800625-.4486394.5434508-1.041792.4467275-1.6217655l-.58-3.476c.6157228-.5638904.9668458-1.3600835.968-2.195z" fill="#37474f"/></g><g id="Layer_2" fill="#000"><path id="Shape" d="m32 60h18c3.3123376-.0033074 5.9966926-2.6876624 6-6v-17c0-1.6568542-1.3431458-3-3-3v-4c-.0071648-6.624447-5.375553-11.9928352-12-12v-14c0-2.209139-1.790861-4-4-4h-36c-.55228475 0-1 .44771525-1 1v49c.00072257.3565418.19122471.6857295.5.864l15.161 8.817c.9293794.4635481 2.0324014.4134357 2.9159191-.132476.8835176-.5459117 1.4218349-1.509957 1.4230809-2.548524v-6h6v3c.0033074 3.3123376 2.6876624 5.9966926 6 6zm22-23v17c0 2.209139-1.790861 4-4 4h-18c-2.209139 0-4-1.790861-4-4v-17c0-.5522847.4477153-1 1-1h24c.5522847 0 1 .4477153 1 1zm-7-3h-12v-4c0-3.3137085 2.6862915-6 6-6s6 2.6862915 6 6zm4-4v4h-2v-4c0-4.418278-3.581722-8-8-8s-8 3.581722-8 8v4h-2v-4c0-5.5228475 4.4771525-10 10-10s10 4.4771525 10 10zm-32.541 13.98c-.3004071.4795623-.4594948 1.0341164-.459 1.6v11.42c.0029256.3476109-.1775933.6710247-.475.851-.2731117.1792413-.6186807.207128-.917.074l-14.608-8.5v-46.639l17.963 11.014c.6380308.3505171 1.0352181 1.0200286 1.037 1.748v24.1c.000265.1885374-.0527745.3733089-.153.533zm1.541 5.02v-3.424c-.0000766-.1881975.0529555-.3725967.153-.532l2.388-3.8c.2997719-.4776339.4588536-1.0300875.459-1.594v-24.1c.0038951-1.4434527-.7740508-2.7758715-2.033-3.482l-16.422-10.068h32.455c1.1045695 0 2 .8954305 2 2v14.181c-5.7668847.9785301-9.9898851 5.9696943-10 11.819v4c-1.6568542 0-3 1.3431458-3 3v12z"/><path id="Shape" d="m43.573 40.937c-1.5801299-1.3010688-3.8875142-1.1993497-5.3470238.235719-1.4595096 1.4350686-1.6001771 3.7404064-.3259762 5.342281l-.5 2.992c-.1449642.8701417.1003839 1.7599847.6707961 2.4328823.5704122.6728975 1.4080696 1.0606427 2.2902039 1.0601177h1.278c.8821659.00028 1.7197422-.3877254 2.2899676-1.0608225.5702254-.6730972.8152958-1.5630538.6700324-2.4331775l-.5-2.989c.5849426-.7080997.9036924-1.5985471.901-2.517.0009383-1.1818413-.5215835-2.3034141-1.427-3.063zm-1.527 5.422.58 3.476c.0485402.2901502-.0331419.5869543-.2233049.8114121-.190163.2244579-.4695128.3537957-.7636951.3535879h-1.278c-.293976.0001587-.5731299-.129045-.7632545-.3532649s-.2719576-.5207394-.2237455-.8107351l.58-3.477c.0559776-.3325748-.05945-.6709618-.307-.9-.5079466-.4628163-.740235-1.1555198-.614-1.831.1595838-.8084152.7915848-1.4404162 1.6-1.6.1213468-.0194805.2441024-.028846.367-.028.4698196-.0021477.924907.1638546 1.283.468.4538114.3794952.7163353.9404251.717 1.532.0000066.5564477-.2349589 1.0870265-.647 1.461-.2468999.2286177-.3622683.5660798-.307.898z"/></g></g></g></svg>