<?xml version="1.0" encoding="iso-8859-1"?>
<!-- Generator: Adobe Illustrator 19.0.0, SVG Export Plug-In . SVG Version: 6.00 Build 0)  -->
<svg version="1.1" id="Capa_1" xmlns="http://www.w3.org/2000/svg" xmlns:xlink="http://www.w3.org/1999/xlink" x="0px" y="0px"
	 viewBox="0 0 497.371 497.371" style="enable-background:new 0 0 497.371 497.371;" xml:space="preserve">
<path style="fill:#1185E0;" d="M494.237,247.641l-29.257-37.616l0,0l-47.02-93.518c-2.612-5.224-7.837-8.882-14.106-8.882H336.98
	V91.951c0-8.882-6.792-15.673-15.673-15.673H60.082c-8.882,0-15.673,6.792-15.673,15.673s6.792,15.673,15.673,15.673h245.551
	v109.714c0,8.882,6.792,15.673,15.673,15.673h121.731l22.988,29.257v80.98h-29.78c-6.792-27.167-31.347-47.543-60.604-47.543
	c-29.257,0-53.812,20.376-60.604,47.543h-92.996c-6.792-27.167-31.347-47.543-60.604-47.543s-53.812,20.376-60.604,47.543H60.082
	c-8.882,0-15.673,6.792-15.673,15.673c0,8.882,6.792,15.673,15.673,15.673h40.751c7.314,26.645,31.347,46.498,60.604,46.498
	s53.29-19.853,60.604-46.498h92.996c7.314,26.645,31.347,46.498,60.604,46.498c29.257,0,53.29-19.853,60.604-46.498h45.453
	c8.882,0,15.673-6.792,15.673-15.673V257.045C497.371,253.388,496.327,250.253,494.237,247.641z M336.98,201.665v-62.694h57.469
	l31.347,62.694H336.98z M161.437,389.747c-17.241,0-31.347-14.106-31.347-31.347s14.106-31.347,31.347-31.347
	s31.347,14.106,31.347,31.347S178.678,389.747,161.437,389.747z M375.641,389.747c-17.241,0-31.347-14.106-31.347-31.347
	s14.106-31.347,31.347-31.347c17.241,0,31.347,14.106,31.347,31.347S392.882,389.747,375.641,389.747z"/>
<g>
	<path style="fill:#4DCFE0;" d="M113.371,295.184H41.273c-8.882,0-15.673-6.792-15.673-15.673c0-8.882,6.792-15.673,15.673-15.673
		h72.098c8.882,0,15.673,6.792,15.673,15.673C129.045,288.392,122.253,295.184,113.371,295.184z"/>
	<path style="fill:#4DCFE0;" d="M149.42,233.535H15.673C6.792,233.535,0,226.743,0,217.861c0-8.882,6.792-15.673,15.673-15.673
		H149.42c8.882,0,15.673,6.792,15.673,15.673C165.094,226.743,158.302,233.535,149.42,233.535z"/>
	<path style="fill:#4DCFE0;" d="M175.02,171.886H41.273c-8.882,0-15.673-6.792-15.673-15.673s6.792-15.673,15.673-15.673H175.02
		c8.882,0,15.673,6.792,15.673,15.673S183.902,171.886,175.02,171.886z"/>
</g>
<g>
</g>
<g>
</g>
<g>
</g>
<g>
</g>
<g>
</g>
<g>
</g>
<g>
</g>
<g>
</g>
<g>
</g>
<g>
</g>
<g>
</g>
<g>
</g>
<g>
</g>
<g>
</g>
<g>
</g>
</svg>
